<svg width="31" height="31" viewBox="0 0 31 31" fill="none" xmlns="http://www.w3.org/2000/svg">
<circle opacity="0.15" cx="15.2174" cy="15.2174" r="15.2174" fill="#DA2535"/>
<g clip-path="url(#clip0_92892_821)">
<path d="M23.2372 10.8845C23.1469 10.5234 22.9628 10.1926 22.7036 9.92537C22.4444 9.65818 22.1193 9.46411 21.7611 9.36278C20.4524 9.04321 15.2177 9.04321 15.2177 9.04321C15.2177 9.04321 9.98288 9.04321 8.67418 9.39321C8.316 9.49455 7.9909 9.68861 7.73173 9.95581C7.47255 10.223 7.28847 10.5539 7.19809 10.915C6.95858 12.2431 6.84142 13.5904 6.84809 14.94C6.83955 16.2997 6.95672 17.6573 7.19809 18.9954C7.29773 19.3453 7.48593 19.6635 7.74451 19.9195C8.00308 20.1754 8.32328 20.3603 8.67418 20.4563C9.98288 20.8063 15.2177 20.8063 15.2177 20.8063C15.2177 20.8063 20.4524 20.8063 21.7611 20.4563C22.1193 20.3549 22.4444 20.1609 22.7036 19.8937C22.9628 19.6265 23.1469 19.2956 23.2372 18.9345C23.4749 17.6164 23.592 16.2793 23.5872 14.94C23.5958 13.5802 23.4786 12.2227 23.2372 10.8845V10.8845Z" stroke="#DA2535" stroke-width="1.06522" stroke-linecap="round" stroke-linejoin="round"/>
<path d="M13.5054 17.4281L17.8804 14.9401L13.5054 12.452V17.4281Z" stroke="#DA2535" stroke-width="1.06522" stroke-linecap="round" stroke-linejoin="round"/>
</g>
<defs>
<clipPath id="clip0_92892_821">
<rect width="18.2609" height="18.2609" fill="white" transform="translate(6.08691 6)"/>
</clipPath>
</defs>
</svg>
