<svg width="31" height="31" viewBox="0 0 31 31" fill="none" xmlns="http://www.w3.org/2000/svg">
<circle opacity="0.15" cx="15.2174" cy="15.2174" r="15.2174" fill="#DA2535"/>
<path d="M19.0219 7.52161H11.4132C9.31215 7.52161 7.60889 9.22487 7.60889 11.326V18.9347C7.60889 21.0357 9.31215 22.739 11.4132 22.739H19.0219C21.123 22.739 22.8263 21.0357 22.8263 18.9347V11.326C22.8263 9.22487 21.123 7.52161 19.0219 7.52161Z" stroke="#DA2535" stroke-width="1.06522" stroke-linecap="round" stroke-linejoin="round"/>
<path d="M18.2616 14.6507C18.3555 15.2839 18.2473 15.9307 17.9525 16.4989C17.6576 17.0671 17.1911 17.5279 16.6193 17.8157C16.0475 18.1035 15.3995 18.2037 14.7675 18.102C14.1355 18.0003 13.5516 17.7019 13.0989 17.2492C12.6463 16.7965 12.3479 16.2127 12.2462 15.5807C12.1445 14.9486 12.2447 14.3006 12.5325 13.7288C12.8203 13.157 13.281 12.6905 13.8493 12.3957C14.4175 12.1008 15.0642 11.9927 15.6974 12.0866C16.3434 12.1824 16.9413 12.4833 17.4031 12.9451C17.8648 13.4068 18.1658 14.0048 18.2616 14.6507Z" stroke="#DA2535" stroke-width="1.06522" stroke-linecap="round" stroke-linejoin="round"/>
<path d="M19.4027 10.9454H19.4115" stroke="#DA2535" stroke-width="1.06522" stroke-linecap="round" stroke-linejoin="round"/>
</svg>
