<svg width="31" height="31" viewBox="0 0 31 31" fill="none" xmlns="http://www.w3.org/2000/svg">
<circle opacity="0.15" cx="15.2174" cy="15.2174" r="15.2174" fill="#DA2535"/>
<g clip-path="url(#clip0_92892_826)">
<path d="M23.5873 8.28231C22.8587 8.79626 22.0519 9.18935 21.1982 9.44644C20.7399 8.91955 20.1309 8.5461 19.4535 8.3766C18.7761 8.20711 18.063 8.24974 17.4106 8.49874C16.7582 8.74774 16.1981 9.19109 15.8059 9.76883C15.4137 10.3466 15.2084 11.0308 15.2177 11.7291V12.4899C13.8806 12.5246 12.5556 12.228 11.3609 11.6267C10.1661 11.0253 9.1386 10.1378 8.36988 9.04318C8.36988 9.04318 5.3264 15.891 12.1742 18.9345C10.6072 19.9982 8.74055 20.5315 6.84814 20.4562C13.696 24.2606 22.0655 20.4562 22.0655 11.7062C22.0648 11.4943 22.0445 11.2829 22.0047 11.0747C22.7812 10.3089 23.3292 9.34198 23.5873 8.28231Z" stroke="#DA2535" stroke-width="1.06522" stroke-linecap="round" stroke-linejoin="round"/>
</g>
<defs>
<clipPath id="clip0_92892_826">
<rect width="18.2609" height="18.2609" fill="white" transform="translate(6.08691 6)"/>
</clipPath>
</defs>
</svg>
