<svg width="31" height="31" viewBox="0 0 31 31" fill="none" xmlns="http://www.w3.org/2000/svg">
<circle opacity="0.15" cx="15.2174" cy="15.2174" r="15.2174" fill="#DA2535"/>
<path d="M18.2605 12.0869C19.4713 12.0869 20.6325 12.5678 21.4886 13.424C22.3448 14.2801 22.8258 15.4413 22.8258 16.6521V21.9782H19.7823V16.6521C19.7823 16.2485 19.6219 15.8614 19.3366 15.576C19.0512 15.2907 18.6641 15.1303 18.2605 15.1303C17.8569 15.1303 17.4699 15.2907 17.1845 15.576C16.8991 15.8614 16.7388 16.2485 16.7388 16.6521V21.9782H13.6953V16.6521C13.6953 15.4413 14.1763 14.2801 15.0324 13.424C15.8886 12.5678 17.0498 12.0869 18.2605 12.0869V12.0869Z" stroke="#DA2535" stroke-width="1.06522" stroke-linecap="round" stroke-linejoin="round"/>
<path d="M10.6519 12.8477H7.6084V21.9781H10.6519V12.8477Z" stroke="#DA2535" stroke-width="1.06522" stroke-linecap="round" stroke-linejoin="round"/>
<path d="M9.13014 10.5651C9.97057 10.5651 10.6519 9.88378 10.6519 9.04335C10.6519 8.20291 9.97057 7.52161 9.13014 7.52161C8.2897 7.52161 7.6084 8.20291 7.6084 9.04335C7.6084 9.88378 8.2897 10.5651 9.13014 10.5651Z" stroke="#DA2535" stroke-width="1.06522" stroke-linecap="round" stroke-linejoin="round"/>
</svg>
